HIERARCHY
ROOT Hips
{
	OFFSET 0.000000 0.000000 0.000000
	CHANNELS 6 Xposition Yposition Zposition Zrotation Yrotation Xrotation 
	JOINT LHipJoint
	{
		OFFSET 0.000000 0.000000 0.000000
		CHANNELS 3 Zrotation Yrotation Xrotation
		JOINT LeftUpLeg
		{
			OFFSET 1.363060 -1.794630 0.839290
			CHANNELS 3 Zrotation Yrotation Xrotation
			JOINT LeftLeg
			{
				OFFSET 2.448110 -6.726130 0.000000
				CHANNELS 3 Zrotation Yrotation Xrotation
				JOINT LeftFoot
				{
					OFFSET 2.562200 -7.039590 0.000000
					CHANNELS 3 Zrotation Yrotation Xrotation
					JOINT LeftToeBase
					{
						OFFSET 0.157640 -0.433110 2.322550
						CHANNELS 3 Zrotation Yrotation Xrotation
						End Site
						{
							OFFSET 0.000000 0.000000 0.000000
						}
					}
				}
			}
		}
	}
	JOINT RHipJoint
	{
		OFFSET 0.000000 0.000000 0.000000
		CHANNELS 3 Zrotation Yrotation Xrotation
		JOINT RightUpLeg
		{
			OFFSET -1.305520 -1.794630 0.839290
			CHANNELS 3 Zrotation Yrotation Xrotation
			JOINT RightLeg
			{
				OFFSET -2.542530 -6.985550 0.000000
				CHANNELS 3 Zrotation Yrotation Xrotation
				JOINT RightFoot
				{
					OFFSET -2.568260 -7.056230 0.000000
					CHANNELS 3 Zrotation Yrotation Xrotation
					JOINT RightToeBase
					{
						OFFSET -0.164730 -0.452590 2.363150
						CHANNELS 3 Zrotation Yrotation Xrotation
						End Site
						{
							OFFSET 0.000000 0.000000 0.000000
						}
					}
				}
			}
		}
	}
	JOINT LowerBack
	{
		OFFSET 0.000000 0.000000 0.000000
		CHANNELS 3 Zrotation Yrotation Xrotation
		JOINT Spine
		{
			OFFSET 0.028270 2.035590 -0.193380
			CHANNELS 3 Zrotation Yrotation Xrotation
			JOINT Spine1
			{
				OFFSET 0.056720 2.048850 -0.042750
				CHANNELS 3 Zrotation Yrotation Xrotation
				JOINT Neck
				{
					OFFSET 0.000000 0.000000 0.000000
					CHANNELS 3 Zrotation Yrotation Xrotation
					JOINT Neck1
					{
						OFFSET -0.054170 1.746240 0.172020
						CHANNELS 3 Zrotation Yrotation Xrotation
						JOINT Head
						{
							OFFSET 0.104070 1.761360 -0.123970
							CHANNELS 3 Zrotation Yrotation Xrotation
							End Site
							{
								OFFSET 0.000000 0.000000 0.000000
							}
						}
					}
				}
				JOINT LeftShoulder
				{
					OFFSET 0.000000 0.000000 0.000000
					CHANNELS 3 Zrotation Yrotation Xrotation
					JOINT LeftArm
					{
						OFFSET 3.362410 1.200890 -0.311210
						CHANNELS 3 Zrotation Yrotation Xrotation
						JOINT LeftForeArm
						{
							OFFSET 4.983000 -0.000000 -0.000000
							CHANNELS 3 Zrotation Yrotation Xrotation
							JOINT LeftHand
							{
								OFFSET 3.483560 -0.000000 -0.000000
								CHANNELS 3 Zrotation Yrotation Xrotation
								JOINT LeftFingerBase
								{
									OFFSET 0.000000 0.000000 0.000000
									CHANNELS 3 Zrotation Yrotation Xrotation
									JOINT LeftHandIndex1
									{
										OFFSET 0.715260 -0.000000 -0.000000
										CHANNELS 3 Zrotation Yrotation Xrotation
										End Site
										{
											OFFSET 0.000000 0.000000 0.000000
										}
									}
								}
								JOINT LThumb
								{
									OFFSET 0.000000 0.000000 0.000000
									CHANNELS 3 Zrotation Yrotation Xrotation
									End Site
									{
										OFFSET 0.000000 0.000000 0.000000
									}
								}
							}
						}
					}
				}
				JOINT RightShoulder
				{
					OFFSET 0.000000 0.000000 0.000000
					CHANNELS 3 Zrotation Yrotation Xrotation
					JOINT RightArm
					{
						OFFSET -3.136600 1.374050 -0.404650
						CHANNELS 3 Zrotation Yrotation Xrotation
						JOINT RightForeArm
						{
							OFFSET -5.241900 -0.000000 -0.000000
							CHANNELS 3 Zrotation Yrotation Xrotation
							JOINT RightHand
							{
								OFFSET -3.444170 -0.000000 -0.000000
								CHANNELS 3 Zrotation Yrotation Xrotation
								JOINT RightFingerBase
								{
									OFFSET 0.000000 0.000000 0.000000
									CHANNELS 3 Zrotation Yrotation Xrotation
									JOINT RightHandIndex1
									{
										OFFSET -0.622530 -0.000000 -0.000000
										CHANNELS 3 Zrotation Yrotation Xrotation
										End Site
										{
											OFFSET 0.000000 0.000000 0.000000
										}
									}
								}
								JOINT RThumb
								{
									OFFSET 0.000000 0.000000 0.000000
									CHANNELS 3 Zrotation Yrotation Xrotation
									End Site
									{
										OFFSET 0.000000 0.000000 0.000000
									}
								}
							}
						}
					}
				}
			}
		}
	}
}
MOTION
Frames: 5
Frame Time: 0.008333
41.572378 17.164909 3.843816 -177.506872 -36.915165 -171.522979 17.740792 1.588103 -2.125900 -16.596517 -29.145943 -14.258685 -10.621510 7.500413 10.976449 -1.387422 14.040512 -11.852424 12.423700 -18.564100 -67.325500 -20.991461 -4.329874 -6.091092 35.363961 0.173883 2.076125 10.715173 -5.359962 15.027425 -3.946139 -2.613782 -34.559611 -0.053000 -1.486000 4.087000 5.275885 0.918167 16.625196 -0.017393 2.031030 -4.932913 -6.356288 -0.132959 -18.743855 4.617607 5.442360 -15.857382 -0.585298 4.758645 20.436332 -2.889200 1.599600 14.257900 8.368564 -7.508487 1.139314 -81.198586 18.120070 29.303408 22.519077 -34.401140 -7.189283 0.480794 2.695439 -1.693457 35.350458 23.385018 13.543000 -7.125000 0.000000 0.000000 6.842200 54.028900 1.524000 -9.050330 7.880981 2.866391 85.497798 -28.636132 33.578930 -22.360821 36.587570 -6.154847 -0.022566 -3.621626 -10.230936 -26.967622 -23.591738 9.494800 7.125000 0.000000 0.000000 1.992300 -51.738500 -0.330700 
41.636467 17.172759 3.846504 -177.554990 -39.986751 -171.475918 17.613234 1.460798 -2.129010 -16.374506 -28.706022 -15.286197 -10.822058 7.237956 9.867500 -1.366264 14.502359 -15.023284 11.529600 -18.184600 -64.489700 -21.189572 -4.359127 -6.143516 35.870042 -0.192263 2.741129 10.879303 -5.064497 14.372204 -4.295383 -2.966707 -36.298044 -0.030500 -1.126700 3.097400 5.001954 0.782646 16.568382 0.255171 1.777076 -4.927640 -5.218413 -0.086980 -18.689482 3.010363 5.368774 -16.270268 0.082254 5.138336 20.532041 -2.165300 1.618500 14.306500 8.427682 -7.540050 1.143566 -81.923522 17.900431 28.931208 22.341499 -34.373241 -7.103591 -0.093658 2.918298 -1.889206 29.197686 33.080900 15.528200 -7.125000 0.000000 0.000000 -2.144600 63.146900 -0.944900 -9.035495 7.850955 2.821797 84.159169 -28.600810 34.814691 -22.209165 36.151790 -6.018533 0.055593 -3.581146 -10.800880 -26.235905 -23.299429 9.107700 7.125000 0.000000 0.000000 2.630800 -51.351300 -0.411800 
41.687866 17.181899 3.850268 -177.416951 -42.871066 -171.620977 17.404764 1.355619 -2.124464 -16.127014 -28.262357 -15.983800 -10.992078 6.841814 8.646972 -0.960985 13.464534 -20.267556 9.869700 -17.335900 -59.051900 -21.410739 -4.389734 -6.206164 36.538120 -0.685342 3.359179 11.074798 -4.800273 13.742197 -4.578534 -4.045375 -37.880993 -0.007900 -0.574500 1.578700 4.720581 0.684871 16.648807 0.566545 1.581141 -4.922261 -4.056556 -0.016134 -18.805986 2.527866 4.794615 -15.662432 -0.322169 4.533442 19.608962 -2.355300 1.331900 13.563600 8.500694 -7.620635 1.200567 -83.206076 18.688447 27.643615 22.722175 -34.818401 -7.255598 -0.089622 2.939486 -1.437869 28.610540 32.592230 14.964100 -7.125000 0.000000 0.000000 -2.608300 62.466900 -1.107600 -8.973698 7.819339 2.779649 82.626952 -28.552821 36.402766 -22.118379 35.739185 -5.905326 0.130034 -3.538409 -11.378996 -25.640088 -23.202466 8.865700 7.125000 0.000000 0.000000 3.175800 -51.199600 -0.485400 
41.728083 17.182867 3.852526 -177.145750 -45.474076 -171.680242 17.204658 1.239706 -2.125599 -15.664959 -27.984043 -16.568600 -11.028938 6.683763 8.048295 -0.453602 11.914849 -24.142943 9.007800 -16.812700 -56.117000 -21.651756 -4.389837 -6.243577 37.451240 -0.714384 3.893131 11.305510 -4.550280 13.020775 -5.033864 -4.333878 -40.041065 -0.034800 -1.204800 3.312500 4.399712 0.665624 16.523825 0.873231 1.463726 -4.950181 -2.903500 0.090259 -18.868939 2.054996 4.515697 -15.469494 -0.606562 4.324988 19.136043 -2.443200 1.194300 13.219900 8.581556 -7.680628 1.244321 -84.330742 19.235138 26.221614 22.930151 -35.059210 -7.302444 -0.102134 2.950540 -1.391612 27.714574 31.380490 13.922500 -7.125000 0.000000 0.000000 -3.122100 60.971000 -1.215600 -8.919129 7.781115 2.725618 81.107869 -28.360362 38.016059 -22.004614 35.337325 -5.815688 0.168301 -3.510786 -11.442026 -25.382266 -23.557067 8.941000 7.125000 0.000000 0.000000 3.491100 -51.567400 -0.565200 
41.751418 17.180501 3.852634 -176.656316 -47.873234 -171.991784 16.975544 1.183397 -2.178752 -15.318678 -27.036694 -17.091174 -11.042250 6.595809 7.793879 -0.043297 10.891165 -27.189186 8.471000 -16.455000 -54.242000 -21.937701 -4.388653 -6.246355 38.702575 -0.080012 4.814563 11.620445 -4.200830 12.050520 -5.796952 -3.790882 -43.180559 -0.157400 -2.556400 7.046000 4.193304 0.639186 16.468555 1.177743 1.368144 -4.977362 -1.823470 0.184934 -18.919417 1.585908 4.434034 -15.663423 -0.772079 4.390099 19.049256 -2.441200 1.159500 13.209700 8.670304 -7.731853 1.275689 -85.348258 19.587776 24.798389 22.826140 -35.012063 -7.236610 -0.068803 2.963328 -1.346800 27.410301 30.049971 13.153400 -7.125000 0.000000 0.000000 -2.959100 59.484600 -1.047200 -8.885512 7.739419 2.663846 79.655272 -27.944681 39.519849 -21.724282 34.808390 -5.687822 0.146598 -3.484171 -10.676851 -25.362726 -23.933456 9.115500 7.125000 0.000000 0.000000 3.583900 -51.997000 -0.618100 
